<svg xmlns="http://www.w3.org/2000/svg" width="1536" height="1024" viewBox="0 0 1536 1024" role="img" aria-label="Biological and artificial neurons are related metaphors, not equivalents">
  <defs>
    <radialGradient id="bgGlow" cx="48%" cy="38%" r="70%">
      <stop offset="0" stop-color="#12354b"/>
      <stop offset="0.45" stop-color="#071c30"/>
      <stop offset="1" stop-color="#020b14"/>
    </radialGradient>
    <linearGradient id="outerPanel" x1="0" x2="1" y1="0" y2="1">
      <stop offset="0" stop-color="#07182a"/>
      <stop offset="0.55" stop-color="#061524"/>
      <stop offset="1" stop-color="#030b13"/>
    </linearGradient>
    <linearGradient id="innerPanel" x1="0" x2="1">
      <stop offset="0" stop-color="#06243a"/>
      <stop offset="0.52" stop-color="#061a2d"/>
      <stop offset="1" stop-color="#04111e"/>
    </linearGradient>
    <linearGradient id="bioStroke" x1="0" x2="1">
      <stop offset="0" stop-color="#23c6a8"/>
      <stop offset="0.5" stop-color="#62d8c2"/>
      <stop offset="1" stop-color="#ffc43d"/>
    </linearGradient>
    <linearGradient id="axonStroke" x1="0" x2="1">
      <stop offset="0" stop-color="#ffc43d"/>
      <stop offset="1" stop-color="#ff8b2a"/>
    </linearGradient>
    <linearGradient id="aiLine" x1="0" x2="1">
      <stop offset="0" stop-color="#23c6a8"/>
      <stop offset="0.72" stop-color="#21b7a2"/>
      <stop offset="1" stop-color="#2f92dc"/>
    </linearGradient>
    <linearGradient id="sumFill" x1="0" x2="1" y1="0" y2="1">
      <stop offset="0" stop-color="#2487bd"/>
      <stop offset="1" stop-color="#195d88"/>
    </linearGradient>
    <filter id="softShadow" x="-20%" y="-20%" width="140%" height="140%">
      <feDropShadow dx="0" dy="18" stdDeviation="18" flood-color="#000000" flood-opacity="0.36"/>
    </filter>
    <filter id="tealGlow" x="-60%" y="-60%" width="220%" height="220%">
      <feGaussianBlur stdDeviation="5" result="blur"/>
      <feColorMatrix in="blur" type="matrix" values="0 0 0 0 0.05 0 0 0 0 0.85 0 0 0 0 0.72 0 0 0 0.95 0"/>
      <feMerge><feMergeNode/><feMergeNode in="SourceGraphic"/></feMerge>
    </filter>
    <filter id="goldGlow" x="-60%" y="-60%" width="220%" height="220%">
      <feGaussianBlur stdDeviation="6" result="blur"/>
      <feColorMatrix in="blur" type="matrix" values="0 0 0 0 1 0 0 0 0 0.63 0 0 0 0 0.05 0 0 0 0.95 0"/>
      <feMerge><feMergeNode/><feMergeNode in="SourceGraphic"/></feMerge>
    </filter>
    <filter id="blueGlow" x="-60%" y="-60%" width="220%" height="220%">
      <feGaussianBlur stdDeviation="6" result="blur"/>
      <feColorMatrix in="blur" type="matrix" values="0 0 0 0 0.16 0 0 0 0 0.55 0 0 0 0 1 0 0 0 0.9 0"/>
      <feMerge><feMergeNode/><feMergeNode in="SourceGraphic"/></feMerge>
    </filter>
    <filter id="grain">
      <feTurbulence type="fractalNoise" baseFrequency="0.74" numOctaves="4" seed="12"/>
      <feColorMatrix type="saturate" values="0"/>
      <feComponentTransfer>
        <feFuncA type="table" tableValues="0 0.045"/>
      </feComponentTransfer>
    </filter>
    <marker id="arrowTeal" viewBox="0 0 10 10" refX="8" refY="5" markerWidth="9" markerHeight="9" markerUnits="userSpaceOnUse" orient="auto-start-reverse">
      <path d="M0 0 L10 5 L0 10Z" fill="#23c6a8"/>
    </marker>
    <marker id="arrowGold" viewBox="0 0 10 10" refX="8" refY="5" markerWidth="9" markerHeight="9" markerUnits="userSpaceOnUse" orient="auto-start-reverse">
      <path d="M0 0 L10 5 L0 10Z" fill="#ffc43d"/>
    </marker>
    <marker id="arrowBlue" viewBox="0 0 10 10" refX="8" refY="5" markerWidth="9" markerHeight="9" markerUnits="userSpaceOnUse" orient="auto-start-reverse">
      <path d="M0 0 L10 5 L0 10Z" fill="#2f92dc"/>
    </marker>
    <style>
      .sans{font-family:"Avenir Next","Helvetica Neue",Arial,sans-serif}
      .serif{font-family:Georgia,"Times New Roman",serif}
      .small{font-size:15px;font-weight:800;fill:#f4f0e8}
      .copy{font-size:16px;font-weight:750;fill:#f4f0e8}
      .muted{fill:#d7d9dc}
      .teal{fill:#22ccb1}
      .blue{fill:#3d9cff}
      .gold{fill:#ffc43d}
      .orange{fill:#ff8940}
      .label{font-size:19px;font-weight:900}
      .stepHead{font-size:17px;font-weight:900}
      .stepCopy{font-size:16px;font-weight:750}
      .shadowText{paint-order:stroke;stroke:#06111d;stroke-width:5px;stroke-linejoin:round}
    </style>
  </defs>

  <rect width="1536" height="1024" fill="#071a2b"/>
  <rect width="1536" height="1024" fill="url(#bgGlow)"/>
  <rect width="1536" height="1024" filter="url(#grain)" opacity="0.65"/>

  <rect x="28" y="20" width="1480" height="984" rx="28" fill="url(#outerPanel)" stroke="#8a6b3d" stroke-width="1.4" filter="url(#softShadow)"/>
  <rect x="48" y="44" width="1440" height="936" rx="24" fill="none" stroke="#8a6b3d" stroke-opacity="0.72" stroke-width="1.2"/>

  <text x="64" y="54" class="sans gold" font-size="21" font-weight="900" letter-spacing="6">VISUALIZATION</text>

  <rect x="54" y="60" width="1428" height="390" rx="24" fill="url(#innerPanel)" stroke="#079fd2" stroke-width="1.35"/>
  <rect x="54" y="474" width="1428" height="358" rx="24" fill="url(#innerPanel)" stroke="#2f92dc" stroke-width="1.35"/>
  <text x="64" y="99" class="serif shadowText" fill="#f4f0e8" font-size="35" font-weight="900">Biological and Artificial Neurons Are Related Metaphors, Not Equivalents</text>

  <g class="sans">
    <text x="86" y="164" class="teal" font-size="38" font-weight="900">Biological Neuron</text>
    <g opacity="0.65" stroke="#d5e9f2" stroke-width="1" stroke-dasharray="4 5">
      <path d="M452 84V176"/>
      <path d="M690 84V176"/>
      <path d="M930 84V176"/>
      <path d="M1168 84V176"/>
    </g>
    <g class="teal">
      <circle cx="475" cy="148" r="12" fill="none" stroke="#22ccb1" stroke-width="3"/>
      <text x="471" y="154" font-size="16" font-weight="900">1</text>
      <text x="500" y="148" class="stepHead teal">Receive Signals</text>
      <text x="500" y="176" class="stepCopy" fill="#f4f0e8">Dendrites receive</text>
      <text x="500" y="198" class="stepCopy" fill="#f4f0e8">electrical signals</text>
      <text x="500" y="220" class="stepCopy" fill="#f4f0e8">from other neurons.</text>

      <circle cx="715" cy="148" r="12" fill="none" stroke="#22ccb1" stroke-width="3"/>
      <text x="711" y="154" font-size="16" font-weight="900">2</text>
      <text x="740" y="148" class="stepHead teal">Integrate</text>
      <text x="740" y="176" class="stepCopy" fill="#f4f0e8">The cell body</text>
      <text x="740" y="198" class="stepCopy" fill="#f4f0e8">integrates incoming</text>
      <text x="740" y="220" class="stepCopy" fill="#f4f0e8">signals.</text>

      <circle cx="955" cy="148" r="12" fill="none" stroke="#22ccb1" stroke-width="3"/>
      <text x="951" y="154" font-size="16" font-weight="900">3</text>
      <text x="980" y="148" class="stepHead teal">Transmit</text>
      <text x="980" y="176" class="stepCopy" fill="#f4f0e8">If the threshold is</text>
      <text x="980" y="198" class="stepCopy" fill="#f4f0e8">reached, an impulse</text>
      <text x="980" y="220" class="stepCopy" fill="#f4f0e8">travels down the axon.</text>

      <circle cx="1195" cy="148" r="12" fill="none" stroke="#22ccb1" stroke-width="3"/>
      <text x="1191" y="154" font-size="16" font-weight="900">4</text>
      <text x="1220" y="148" class="stepHead teal">Communicate</text>
      <text x="1220" y="176" class="stepCopy" fill="#f4f0e8">The signal is passed</text>
      <text x="1220" y="198" class="stepCopy" fill="#f4f0e8">to other neurons</text>
      <text x="1220" y="220" class="stepCopy" fill="#f4f0e8">across synapses.</text>
    </g>
  </g>

  <g fill="none" stroke="#23c6a8" stroke-width="4" stroke-linecap="round" stroke-linejoin="round" filter="url(#tealGlow)">
    <path d="M88 245H205" marker-end="url(#arrowTeal)"/>
    <path d="M88 291H205" marker-end="url(#arrowTeal)"/>
    <path d="M88 337H205" marker-end="url(#arrowTeal)"/>
    <path d="M88 383H205" marker-end="url(#arrowTeal)"/>

    <path d="M505 318C445 292 410 244 330 220"/>
    <path d="M505 318C430 304 392 274 326 262"/>
    <path d="M505 318C424 326 386 353 319 371"/>
    <path d="M505 318C442 350 397 406 326 422"/>
    <path d="M356 232C326 214 300 202 262 194"/>
    <path d="M354 238C318 234 288 224 250 205"/>
    <path d="M344 271C304 262 282 258 250 264"/>
    <path d="M344 354C302 360 278 374 246 402"/>
    <path d="M357 388C322 408 296 426 258 436"/>
    <path d="M357 226C350 207 337 194 314 182"/>
    <path d="M361 397C370 430 362 456 340 482"/>
  </g>
  <g filter="url(#goldGlow)">
    <circle cx="266" cy="209" r="7" fill="#ffc43d"/>
    <circle cx="306" cy="202" r="7" fill="#ffc43d"/>
    <circle cx="279" cy="257" r="7" fill="#ffc43d"/>
    <circle cx="340" cy="242" r="7" fill="#ffc43d"/>
    <circle cx="250" cy="318" r="7" fill="#ffc43d"/>
    <circle cx="309" cy="381" r="7" fill="#ffc43d"/>
    <circle cx="282" cy="419" r="7" fill="#ffc43d"/>
  </g>
  <g filter="url(#goldGlow)">
    <circle cx="510" cy="320" r="64" fill="#082338" stroke="#ffc43d" stroke-width="5"/>
    <circle cx="510" cy="320" r="28" fill="#ff9745"/>
    <circle cx="510" cy="320" r="82" fill="none" stroke="#23c6a8" stroke-opacity="0.28" stroke-width="3"/>
  </g>
  <path d="M574 320H1126" stroke="url(#axonStroke)" stroke-width="18" stroke-linecap="round" filter="url(#goldGlow)"/>
  <g filter="url(#goldGlow)">
    <rect x="635" y="298" width="92" height="44" rx="16" fill="#d99a32" fill-opacity="0.86" stroke="#ffc43d" stroke-width="3"/>
    <rect x="750" y="298" width="92" height="44" rx="16" fill="#d99a32" fill-opacity="0.86" stroke="#ffc43d" stroke-width="3"/>
    <rect x="865" y="298" width="92" height="44" rx="16" fill="#d99a32" fill-opacity="0.86" stroke="#ffc43d" stroke-width="3"/>
    <rect x="980" y="298" width="92" height="44" rx="16" fill="#d99a32" fill-opacity="0.86" stroke="#ffc43d" stroke-width="3"/>
  </g>
  <path d="M720 255H1068" stroke="#ffc43d" stroke-width="4" marker-end="url(#arrowGold)" filter="url(#goldGlow)"/>
  <g fill="none" stroke="#23c6a8" stroke-width="4" stroke-linecap="round" stroke-linejoin="round" filter="url(#tealGlow)">
    <path d="M1124 320C1180 282 1234 262 1294 264"/>
    <path d="M1124 320C1178 310 1234 308 1294 308"/>
    <path d="M1124 320C1178 338 1234 352 1294 352"/>
    <path d="M1124 320C1174 374 1216 400 1268 408"/>
  </g>
  <g filter="url(#goldGlow)">
    <circle cx="1296" cy="264" r="8" fill="#ffc43d"/>
    <circle cx="1298" cy="308" r="8" fill="#ffc43d"/>
    <circle cx="1297" cy="352" r="8" fill="#ffc43d"/>
    <circle cx="1268" cy="408" r="8" fill="#ffc43d"/>
    <circle cx="1364" cy="300" r="6" fill="#ffc43d"/>
    <circle cx="1406" cy="328" r="5" fill="#ffc43d"/>
    <circle cx="1340" cy="358" r="5" fill="#ffc43d"/>
    <circle cx="1388" cy="384" r="5" fill="#ffc43d"/>
    <circle cx="1328" cy="274" r="4" fill="#ffc43d"/>
  </g>
  <g class="sans shadowText">
    <text x="130" y="371" text-anchor="middle" class="label teal">inputs from</text>
    <text x="130" y="394" text-anchor="middle" class="label teal">other neurons</text>
    <text x="862" y="250" text-anchor="middle" class="label gold">electrical impulse</text>
    <text x="1360" y="350" text-anchor="middle" class="label gold">neurotransmitters</text>
    <text x="1360" y="373" text-anchor="middle" class="label gold">cross the synapse</text>
    <text x="470" y="423" text-anchor="middle" class="copy">cell body</text>
    <text x="470" y="445" text-anchor="middle" class="copy">(soma)</text>
    <text x="774" y="431" text-anchor="middle" class="copy">axon</text>
    <text x="1218" y="423" text-anchor="middle" class="copy">axon terminals</text>
    <text x="1218" y="445" text-anchor="middle" class="copy">(synapses)</text>
  </g>

  <g class="sans">
    <text x="72" y="523" class="blue" font-size="38" font-weight="900">Artificial Neuron</text>
    <g class="blue">
      <circle cx="430" cy="503" r="12" fill="none" stroke="#3d9cff" stroke-width="3"/>
      <text x="426" y="509" font-size="16" font-weight="900">1</text>
      <text x="454" y="503" class="stepHead blue">Inputs</text>
      <text x="454" y="531" class="stepCopy" fill="#f4f0e8">Features enter the</text>
      <text x="454" y="553" class="stepCopy" fill="#f4f0e8">model as numeric</text>
      <text x="454" y="575" class="stepCopy" fill="#f4f0e8">values.</text>

      <circle cx="650" cy="503" r="12" fill="none" stroke="#3d9cff" stroke-width="3"/>
      <text x="646" y="509" font-size="16" font-weight="900">2</text>
      <text x="674" y="503" class="stepHead blue">Weighted Sum</text>
      <text x="674" y="531" class="stepCopy" fill="#f4f0e8">Inputs are scaled by</text>
      <text x="674" y="553" class="stepCopy" fill="#f4f0e8">weights and summed</text>
      <text x="674" y="575" class="stepCopy" fill="#f4f0e8">together, plus bias.</text>

      <circle cx="918" cy="503" r="12" fill="none" stroke="#3d9cff" stroke-width="3"/>
      <text x="914" y="509" font-size="16" font-weight="900">3</text>
      <text x="942" y="503" class="stepHead blue">Activation</text>
      <text x="942" y="531" class="stepCopy" fill="#f4f0e8">The activation function</text>
      <text x="942" y="553" class="stepCopy" fill="#f4f0e8">introduces non-linearity</text>
      <text x="942" y="575" class="stepCopy" fill="#f4f0e8">to decide the response.</text>

      <circle cx="1202" cy="503" r="12" fill="none" stroke="#3d9cff" stroke-width="3"/>
      <text x="1198" y="509" font-size="16" font-weight="900">4</text>
      <text x="1226" y="503" class="stepHead blue">Output</text>
      <text x="1226" y="531" class="stepCopy" fill="#f4f0e8">The output is passed</text>
      <text x="1226" y="553" class="stepCopy" fill="#f4f0e8">to the next layer or</text>
      <text x="1226" y="575" class="stepCopy" fill="#f4f0e8">used for predictions.</text>
    </g>
  </g>

  <g class="sans">
    <g filter="url(#blueGlow)">
      <circle cx="206" cy="594" r="34" fill="#082338" stroke="#3d9cff" stroke-width="4"/>
      <circle cx="206" cy="654" r="34" fill="#082338" stroke="#3d9cff" stroke-width="4"/>
      <circle cx="206" cy="714" r="34" fill="#082338" stroke="#3d9cff" stroke-width="4"/>
      <circle cx="206" cy="816" r="34" fill="#082338" stroke="#3d9cff" stroke-width="4"/>
    </g>
    <g filter="url(#goldGlow)">
      <circle cx="345" cy="594" r="31" fill="#09283a" stroke="#ffc43d" stroke-width="4"/>
      <circle cx="345" cy="654" r="31" fill="#09283a" stroke="#ffc43d" stroke-width="4"/>
      <circle cx="345" cy="714" r="31" fill="#09283a" stroke="#ffc43d" stroke-width="4"/>
      <circle cx="345" cy="816" r="31" fill="#09283a" stroke="#ffc43d" stroke-width="4"/>
    </g>
    <g stroke="#23c6a8" stroke-width="4" fill="none" marker-end="url(#arrowTeal)">
      <path d="M158 594H171"/>
      <path d="M240 594H310"/>
      <path d="M158 654H171"/>
      <path d="M240 654H310"/>
      <path d="M158 714H171"/>
      <path d="M240 714H310"/>
      <path d="M158 816H171"/>
      <path d="M240 816H310"/>
      <path d="M376 594L610 676"/>
      <path d="M376 654L610 690"/>
      <path d="M376 714L610 704"/>
      <path d="M376 816L610 718"/>
    </g>
    <g class="shadowText" fill="#f4f0e8" font-size="20" font-weight="900">
      <text x="128" y="602" text-anchor="middle">x<tspan dy="5" font-size="13">1</tspan></text>
      <text x="128" y="662" text-anchor="middle">x<tspan dy="5" font-size="13">2</tspan></text>
      <text x="128" y="722" text-anchor="middle">x<tspan dy="5" font-size="13">3</tspan></text>
      <text x="128" y="824" text-anchor="middle">x<tspan dy="5" font-size="13">n</tspan></text>
      <text x="345" y="602" text-anchor="middle">w<tspan dy="5" font-size="13">1</tspan></text>
      <text x="345" y="662" text-anchor="middle">w<tspan dy="5" font-size="13">2</tspan></text>
      <text x="345" y="722" text-anchor="middle">w<tspan dy="5" font-size="13">3</tspan></text>
      <text x="345" y="824" text-anchor="middle">w<tspan dy="5" font-size="13">n</tspan></text>
      <circle cx="128" cy="754" r="4" fill="#f4f0e8"/>
      <circle cx="128" cy="776" r="4" fill="#f4f0e8"/>
      <circle cx="128" cy="798" r="4" fill="#f4f0e8"/>
      <circle cx="345" cy="754" r="4" fill="#f4f0e8"/>
      <circle cx="345" cy="776" r="4" fill="#f4f0e8"/>
      <circle cx="345" cy="798" r="4" fill="#f4f0e8"/>
    </g>
    <g filter="url(#goldGlow)">
      <circle cx="686" cy="696" r="61" fill="url(#sumFill)" stroke="#ffc43d" stroke-width="4"/>
      <text x="686" y="724" text-anchor="middle" fill="#f4f0e8" font-size="86" font-weight="900">Σ</text>
    </g>
    <text x="686" y="790" text-anchor="middle" class="shadowText" fill="#f4f0e8" font-size="22" font-weight="900">transfer</text>
    <text x="686" y="817" text-anchor="middle" class="shadowText" fill="#f4f0e8" font-size="22" font-weight="900">function</text>

    <path d="M748 696H936" stroke="#23c6a8" stroke-width="5" marker-end="url(#arrowTeal)" filter="url(#tealGlow)"/>
    <text x="844" y="660" text-anchor="middle" class="shadowText" fill="#f4f0e8" font-size="24" font-weight="900">net input</text>
    <text x="844" y="690" text-anchor="middle" class="shadowText" fill="#f4f0e8" font-size="22" font-style="italic">net<tspan dy="6" font-size="14">j</tspan></text>

    <g filter="url(#goldGlow)">
      <rect x="953" y="638" width="132" height="116" rx="6" fill="#7a1d77" stroke="#ffc43d" stroke-width="4"/>
      <text x="1019" y="718" text-anchor="middle" fill="#f4f0e8" font-size="78" font-weight="900">φ</text>
    </g>
    <path d="M1019 790V756" stroke="#f4f0e8" stroke-width="4"/>
    <path d="M1019 756l-8 13M1019 756l8 13" stroke="#23c6a8" stroke-width="4" stroke-linecap="round"/>
    <circle cx="1019" cy="790" r="6" fill="#f4f0e8"/>
    <text x="1019" y="817" text-anchor="middle" class="shadowText" fill="#f4f0e8" font-size="18" font-weight="900">θj threshold</text>

    <path d="M1087 696H1248" stroke="#2f92dc" stroke-width="5" marker-end="url(#arrowBlue)" filter="url(#blueGlow)"/>
    <text x="1306" y="690" text-anchor="middle" class="shadowText" fill="#f4f0e8" font-size="24" font-style="italic">o<tspan dy="7" font-size="15">j</tspan></text>
    <text x="1306" y="722" text-anchor="middle" class="shadowText" fill="#f4f0e8" font-size="24" font-weight="900">Activation</text>
  </g>

  <rect x="74" y="870" width="1388" height="110" rx="22" fill="#061524" fill-opacity="0.82" stroke="#8a6b3d" stroke-width="1.2"/>
  <g filter="url(#tealGlow)" transform="translate(118 888) scale(0.82)" fill="none" stroke="#23c6a8" stroke-width="4" stroke-linecap="round" stroke-linejoin="round">
    <path d="M38 52c0-20 16-34 36-34s36 14 36 34c0 14-8 25-20 32v13H58V84c-12-7-20-18-20-32Z"/>
    <path d="M60 108h28M64 119h20M74 0v16M38 16L26 4M110 16l12-12M22 54H4M144 54h-18"/>
  </g>
  <text x="265" y="926" class="sans shadowText" fill="#f4f0e8" font-size="18" font-weight="850">Artificial neurons borrow language from biology, but they abstract away metabolism, cellular repair, chemical signaling, and</text>
  <text x="265" y="953" class="sans shadowText" fill="#f4f0e8" font-size="18" font-weight="850">embodiment.</text>
</svg>
